<svg width="220" height="220" viewBox="0 0 220 220" xmlns="http://www.w3.org/2000/svg">
  <defs>
    <style>
      .matrix-bracket { fill: none; stroke: #9ca3ba; stroke-width: 1.5; }
      .grid-line { stroke: #3d4456; stroke-width: 1; }
      .label { fill: #e8eaf0; font-family: 'Inter', sans-serif; font-size: 18px; font-weight: 600; }
      .row-highlight { fill: none; stroke: #ff9d72; stroke-width: 3.5; }
      .col-highlight { fill: none; stroke: #72f5a8; stroke-width: 3.5; }
      .result-dot { fill: #6bb8ff; stroke: #8fcdff; stroke-width: 2; }
      .arrow { stroke-width: 4; fill: none; }
      .arrow-row { stroke: #ff9d72; }
      .arrow-col { stroke: #72f5a8; }
    </style>
    <marker id="arrowhead-row" markerWidth="8" markerHeight="8" refX="7" refY="4" orient="auto">
      <path d="M 0 0 L 8 4 L 0 8 z" fill="#ff9d72"/>
    </marker>
    <marker id="arrowhead-col" markerWidth="8" markerHeight="8" refX="7" refY="4" orient="auto">
      <path d="M 0 0 L 8 4 L 0 8 z" fill="#72f5a8"/>
    </marker>
  </defs>

  <!-- Background -->
  <rect width="220" height="220" fill="#13151c"/>

  <!-- Labels -->
  <text x="8" y="130" class="label">A</text>
  <text x="125" y="20" class="label">B</text>

  <!-- Matrix A (left) -->
  <g id="matrix-a">
    <path d="M 25,145 L 20,145 L 20,85 L 25,85" class="matrix-bracket"/>
    <path d="M 75,145 L 80,145 L 80,85 L 75,85" class="matrix-bracket"/>
    
    <!-- Grid -->
    <line x1="50" y1="85" x2="50" y2="145" class="grid-line"/>
    <line x1="25" y1="105" x2="75" y2="105" class="grid-line"/>
    <line x1="25" y1="125" x2="75" y2="125" class="grid-line"/>
    
    <!-- Highlight row -->
    <rect x="23" y="127" width="54" height="16" class="row-highlight"/>
  </g>

  <!-- Matrix B (top) -->
  <g id="matrix-b">
    <path d="M 105,60 L 105,65 L 145,65 L 145,60" class="matrix-bracket"/>
    <path d="M 105,20 L 105,15 L 145,15 L 145,20" class="matrix-bracket"/>
    
    <!-- Grid -->
    <line x1="125" y1="20" x2="125" y2="60" class="grid-line"/>
    <line x1="105" y1="40" x2="145" y2="40" class="grid-line"/>
    
    <!-- Highlight column -->
    <rect x="109" y="17" width="14" height="46" class="col-highlight"/>
  </g>

  <!-- Result Matrix C (bottom-right) -->
  <g id="matrix-c">
    <path d="M 105,145 L 100,145 L 100,85 L 105,85" class="matrix-bracket"/>
    <path d="M 155,145 L 160,145 L 160,85 L 155,85" class="matrix-bracket"/>
    
    <!-- Grid -->
    <line x1="130" y1="85" x2="130" y2="145" class="grid-line"/>
    <line x1="105" y1="105" x2="155" y2="105" class="grid-line"/>
    <line x1="105" y1="125" x2="155" y2="125" class="grid-line"/>
    
    <!-- Result dot -->
    <circle cx="117" cy="135" r="6" class="result-dot"/>
  </g>

  <!-- Arrows showing the multiplication -->
  <path d="M 40 140 L 105 140" class="arrow arrow-row" marker-end="url(#arrowhead-row)"/>
  <path d="M 117 32 L 117 82" class="arrow arrow-col" marker-end="url(#arrowhead-col)"/>

  <!-- Small illustration: dot product -->
  <g transform="translate(165, 110)">
    <text x="0" y="0" style="fill:#9ca3ba;font-size:12px;font-family:'Inter'">row • col</text>
    <text x="0" y="15" style="fill:#9ca3ba;font-size:12px;font-family:'Inter'">= result</text>
  </g>

</svg>
